<mxfile host="app.diagrams.net" agent="Mozilla/5.0 (X11; Linux x86_64; rv:128.0) Gecko/20100101 Firefox/128.0" version="26.0.14">
  <diagram name="Page-1" id="hbCaFbsLZB5nVaUopwEl">
    <mxGraphModel dx="2766" dy="955" grid="1" gridSize="10" guides="1" tooltips="1" connect="1" arrows="1" fold="1" page="1" pageScale="1" pageWidth="850" pageHeight="1100" math="0" shadow="0">
      <root>
        <mxCell id="0" />
        <mxCell id="1" parent="0" />
        <mxCell id="bbKsHi3ar1JZ7ZzZOmmY-124" value="" style="rounded=0;whiteSpace=wrap;html=1;fillColor=#d5e8d4;strokeColor=none;dashed=1;dashPattern=1 4;" parent="1" vertex="1">
          <mxGeometry x="820" y="1580" width="10" height="40" as="geometry" />
        </mxCell>
        <mxCell id="bbKsHi3ar1JZ7ZzZOmmY-125" value="" style="rounded=0;whiteSpace=wrap;html=1;fillColor=#dae8fc;strokeColor=none;dashed=1;dashPattern=1 4;" parent="1" vertex="1">
          <mxGeometry x="830" y="1580" width="20" height="40" as="geometry" />
        </mxCell>
        <mxCell id="bbKsHi3ar1JZ7ZzZOmmY-126" value="" style="rounded=0;whiteSpace=wrap;html=1;fillColor=#f8cecc;strokeColor=none;dashed=1;dashPattern=1 4;" parent="1" vertex="1">
          <mxGeometry x="850" y="1580" width="10" height="40" as="geometry" />
        </mxCell>
        <mxCell id="bbKsHi3ar1JZ7ZzZOmmY-127" value="" style="rounded=0;whiteSpace=wrap;html=1;fillColor=#f5f5f5;strokeColor=none;fontColor=#333333;dashed=1;dashPattern=1 4;" parent="1" vertex="1">
          <mxGeometry x="860.06" y="1580" width="30" height="40" as="geometry" />
        </mxCell>
        <mxCell id="bbKsHi3ar1JZ7ZzZOmmY-123" value="" style="rounded=0;whiteSpace=wrap;html=1;fillColor=#f5f5f5;strokeColor=none;fontColor=#333333;dashed=1;dashPattern=1 4;" parent="1" vertex="1">
          <mxGeometry x="790" y="1580" width="30" height="40" as="geometry" />
        </mxCell>
        <mxCell id="bbKsHi3ar1JZ7ZzZOmmY-120" value="" style="rounded=0;whiteSpace=wrap;html=1;fillColor=#f8cecc;strokeColor=none;dashed=1;dashPattern=1 4;" parent="1" vertex="1">
          <mxGeometry x="780" y="1580" width="10" height="40" as="geometry" />
        </mxCell>
        <mxCell id="bbKsHi3ar1JZ7ZzZOmmY-118" value="" style="rounded=0;whiteSpace=wrap;html=1;fillColor=#dae8fc;strokeColor=none;dashed=1;dashPattern=1 4;" parent="1" vertex="1">
          <mxGeometry x="710" y="1580" width="70" height="40" as="geometry" />
        </mxCell>
        <mxCell id="bbKsHi3ar1JZ7ZzZOmmY-115" value="" style="rounded=0;whiteSpace=wrap;html=1;fillColor=#f5f5f5;strokeColor=none;fontColor=#333333;dashed=1;dashPattern=1 4;" parent="1" vertex="1">
          <mxGeometry x="600" y="1580" width="100" height="40" as="geometry" />
        </mxCell>
        <mxCell id="bbKsHi3ar1JZ7ZzZOmmY-114" value="" style="rounded=0;whiteSpace=wrap;html=1;fillColor=#d5e8d4;strokeColor=none;dashed=1;dashPattern=1 4;" parent="1" vertex="1">
          <mxGeometry x="700" y="1580" width="10" height="40" as="geometry" />
        </mxCell>
        <mxCell id="V150V9mAOHtHL611iEyy-3" style="edgeStyle=orthogonalEdgeStyle;rounded=0;orthogonalLoop=1;jettySize=auto;html=1;" parent="1" source="V150V9mAOHtHL611iEyy-1" edge="1">
          <mxGeometry relative="1" as="geometry">
            <mxPoint x="425" y="480" as="targetPoint" />
          </mxGeometry>
        </mxCell>
        <mxCell id="V150V9mAOHtHL611iEyy-4" value="PPM_input == 1" style="edgeLabel;html=1;align=center;verticalAlign=middle;resizable=0;points=[];" parent="V150V9mAOHtHL611iEyy-3" vertex="1" connectable="0">
          <mxGeometry x="-0.16" y="3" relative="1" as="geometry">
            <mxPoint as="offset" />
          </mxGeometry>
        </mxCell>
        <mxCell id="V150V9mAOHtHL611iEyy-1" value="Idle" style="rounded=0;whiteSpace=wrap;html=1;" parent="1" vertex="1">
          <mxGeometry x="365" y="370" width="120" height="60" as="geometry" />
        </mxCell>
        <mxCell id="V150V9mAOHtHL611iEyy-6" style="edgeStyle=orthogonalEdgeStyle;rounded=0;orthogonalLoop=1;jettySize=auto;html=1;entryX=0.5;entryY=0;entryDx=0;entryDy=0;" parent="1" source="V150V9mAOHtHL611iEyy-2" target="V150V9mAOHtHL611iEyy-5" edge="1">
          <mxGeometry relative="1" as="geometry" />
        </mxCell>
        <mxCell id="V150V9mAOHtHL611iEyy-7" value="On negedge of PPM input" style="edgeLabel;html=1;align=center;verticalAlign=middle;resizable=0;points=[];" parent="V150V9mAOHtHL611iEyy-6" vertex="1" connectable="0">
          <mxGeometry x="-0.0357" y="-1" relative="1" as="geometry">
            <mxPoint as="offset" />
          </mxGeometry>
        </mxCell>
        <mxCell id="V150V9mAOHtHL611iEyy-2" value="Measure&lt;br&gt;- Start counter&lt;div&gt;- Measures width of pulse&lt;/div&gt;" style="rounded=0;whiteSpace=wrap;html=1;" parent="1" vertex="1">
          <mxGeometry x="365" y="580" width="120" height="60" as="geometry" />
        </mxCell>
        <mxCell id="V150V9mAOHtHL611iEyy-10" style="edgeStyle=orthogonalEdgeStyle;rounded=0;orthogonalLoop=1;jettySize=auto;html=1;entryX=1;entryY=0.5;entryDx=0;entryDy=0;" parent="1" source="V150V9mAOHtHL611iEyy-5" target="V150V9mAOHtHL611iEyy-2" edge="1">
          <mxGeometry relative="1" as="geometry">
            <Array as="points">
              <mxPoint x="550" y="710" />
              <mxPoint x="550" y="610" />
            </Array>
          </mxGeometry>
        </mxCell>
        <mxCell id="V150V9mAOHtHL611iEyy-11" value="On posedge&amp;nbsp;&lt;div&gt;&amp;amp;&amp;amp; Frame_end != 1&lt;/div&gt;" style="edgeLabel;html=1;align=center;verticalAlign=middle;resizable=0;points=[];" parent="V150V9mAOHtHL611iEyy-10" vertex="1" connectable="0">
          <mxGeometry x="0.1593" relative="1" as="geometry">
            <mxPoint x="20" y="18" as="offset" />
          </mxGeometry>
        </mxCell>
        <mxCell id="V150V9mAOHtHL611iEyy-16" style="edgeStyle=orthogonalEdgeStyle;rounded=0;orthogonalLoop=1;jettySize=auto;html=1;" parent="1" source="V150V9mAOHtHL611iEyy-5" target="V150V9mAOHtHL611iEyy-15" edge="1">
          <mxGeometry relative="1" as="geometry" />
        </mxCell>
        <mxCell id="V150V9mAOHtHL611iEyy-17" value="On posedge&amp;nbsp;&lt;br&gt;&amp;amp;&amp;amp; Frame_end == 1" style="edgeLabel;html=1;align=center;verticalAlign=middle;resizable=0;points=[];" parent="V150V9mAOHtHL611iEyy-16" vertex="1" connectable="0">
          <mxGeometry x="-0.3714" y="-3" relative="1" as="geometry">
            <mxPoint x="3" y="4" as="offset" />
          </mxGeometry>
        </mxCell>
        <mxCell id="V150V9mAOHtHL611iEyy-18" style="edgeStyle=orthogonalEdgeStyle;rounded=0;orthogonalLoop=1;jettySize=auto;html=1;" parent="1" source="V150V9mAOHtHL611iEyy-5" edge="1">
          <mxGeometry relative="1" as="geometry">
            <mxPoint x="365" y="410" as="targetPoint" />
            <Array as="points">
              <mxPoint x="280" y="710" />
              <mxPoint x="280" y="410" />
            </Array>
          </mxGeometry>
        </mxCell>
        <mxCell id="V150V9mAOHtHL611iEyy-19" value="Invalid gap == 1" style="edgeLabel;html=1;align=center;verticalAlign=middle;resizable=0;points=[];" parent="V150V9mAOHtHL611iEyy-18" vertex="1" connectable="0">
          <mxGeometry x="0.1325" y="2" relative="1" as="geometry">
            <mxPoint y="86" as="offset" />
          </mxGeometry>
        </mxCell>
        <mxCell id="V150V9mAOHtHL611iEyy-5" value="Validate interchannel gap (GAP)" style="rounded=0;whiteSpace=wrap;html=1;" parent="1" vertex="1">
          <mxGeometry x="365" y="680" width="120" height="60" as="geometry" />
        </mxCell>
        <mxCell id="V150V9mAOHtHL611iEyy-20" style="edgeStyle=orthogonalEdgeStyle;rounded=0;orthogonalLoop=1;jettySize=auto;html=1;entryX=0;entryY=0.25;entryDx=0;entryDy=0;" parent="1" source="V150V9mAOHtHL611iEyy-15" target="V150V9mAOHtHL611iEyy-1" edge="1">
          <mxGeometry relative="1" as="geometry">
            <mxPoint x="260" y="820" as="targetPoint" />
            <Array as="points">
              <mxPoint x="230" y="820" />
              <mxPoint x="230" y="385" />
            </Array>
          </mxGeometry>
        </mxCell>
        <mxCell id="V150V9mAOHtHL611iEyy-15" value="STORE" style="rounded=0;whiteSpace=wrap;html=1;" parent="1" vertex="1">
          <mxGeometry x="365" y="790" width="120" height="60" as="geometry" />
        </mxCell>
        <mxCell id="I_L8l_8aJPMO7CtZ8ZGV-2" style="edgeStyle=orthogonalEdgeStyle;rounded=0;orthogonalLoop=1;jettySize=auto;html=1;entryX=0.5;entryY=0;entryDx=0;entryDy=0;" parent="1" source="I_L8l_8aJPMO7CtZ8ZGV-1" target="V150V9mAOHtHL611iEyy-2" edge="1">
          <mxGeometry relative="1" as="geometry" />
        </mxCell>
        <mxCell id="I_L8l_8aJPMO7CtZ8ZGV-3" value="# of clk cycles == 5&lt;div&gt;&amp;amp;&amp;amp; PPM_input == 1&lt;/div&gt;" style="edgeLabel;html=1;align=center;verticalAlign=middle;resizable=0;points=[];" parent="I_L8l_8aJPMO7CtZ8ZGV-2" vertex="1" connectable="0">
          <mxGeometry x="-0.2714" y="3" relative="1" as="geometry">
            <mxPoint x="-3" y="2" as="offset" />
          </mxGeometry>
        </mxCell>
        <mxCell id="I_L8l_8aJPMO7CtZ8ZGV-4" style="edgeStyle=orthogonalEdgeStyle;rounded=0;orthogonalLoop=1;jettySize=auto;html=1;entryX=1;entryY=0.5;entryDx=0;entryDy=0;" parent="1" source="I_L8l_8aJPMO7CtZ8ZGV-1" target="V150V9mAOHtHL611iEyy-1" edge="1">
          <mxGeometry relative="1" as="geometry">
            <Array as="points">
              <mxPoint x="540" y="500" />
              <mxPoint x="540" y="400" />
            </Array>
          </mxGeometry>
        </mxCell>
        <mxCell id="I_L8l_8aJPMO7CtZ8ZGV-5" value="# of clk cycles == 5&lt;div&gt;&amp;amp;&amp;amp; PPM_input != 1&lt;br&gt;&lt;/div&gt;" style="edgeLabel;html=1;align=center;verticalAlign=middle;resizable=0;points=[];" parent="I_L8l_8aJPMO7CtZ8ZGV-4" vertex="1" connectable="0">
          <mxGeometry x="-0.0326" y="-2" relative="1" as="geometry">
            <mxPoint as="offset" />
          </mxGeometry>
        </mxCell>
        <mxCell id="I_L8l_8aJPMO7CtZ8ZGV-1" value="Counting 1s" style="rounded=0;whiteSpace=wrap;html=1;" parent="1" vertex="1">
          <mxGeometry x="365" y="470" width="120" height="60" as="geometry" />
        </mxCell>
        <mxCell id="I_L8l_8aJPMO7CtZ8ZGV-7" style="edgeStyle=orthogonalEdgeStyle;rounded=0;orthogonalLoop=1;jettySize=auto;html=1;entryX=0.5;entryY=0;entryDx=0;entryDy=0;" parent="1" source="I_L8l_8aJPMO7CtZ8ZGV-9" target="I_L8l_8aJPMO7CtZ8ZGV-26" edge="1">
          <mxGeometry relative="1" as="geometry">
            <mxPoint x="39.879999999999995" y="470" as="targetPoint" />
          </mxGeometry>
        </mxCell>
        <mxCell id="SgZbVkb8MoTtRzP9FXSa-2" value="PPM_input = 0" style="edgeLabel;html=1;align=center;verticalAlign=middle;resizable=0;points=[];" parent="I_L8l_8aJPMO7CtZ8ZGV-7" vertex="1" connectable="0">
          <mxGeometry x="-0.2548" relative="1" as="geometry">
            <mxPoint as="offset" />
          </mxGeometry>
        </mxCell>
        <mxCell id="I_L8l_8aJPMO7CtZ8ZGV-9" value="Idle" style="rounded=0;whiteSpace=wrap;html=1;" parent="1" vertex="1">
          <mxGeometry x="-20.120000000000005" y="360" width="120" height="60" as="geometry" />
        </mxCell>
        <mxCell id="I_L8l_8aJPMO7CtZ8ZGV-10" style="edgeStyle=orthogonalEdgeStyle;rounded=0;orthogonalLoop=1;jettySize=auto;html=1;entryX=0.5;entryY=0;entryDx=0;entryDy=0;" parent="1" source="I_L8l_8aJPMO7CtZ8ZGV-12" target="I_L8l_8aJPMO7CtZ8ZGV-19" edge="1">
          <mxGeometry relative="1" as="geometry" />
        </mxCell>
        <mxCell id="SgZbVkb8MoTtRzP9FXSa-4" value="PPM_input = 1&lt;div&gt;&amp;amp;&amp;amp; # clk cycles = 3&lt;/div&gt;" style="edgeLabel;html=1;align=center;verticalAlign=middle;resizable=0;points=[];" parent="I_L8l_8aJPMO7CtZ8ZGV-10" vertex="1" connectable="0">
          <mxGeometry x="-0.2024" y="1" relative="1" as="geometry">
            <mxPoint as="offset" />
          </mxGeometry>
        </mxCell>
        <mxCell id="I_L8l_8aJPMO7CtZ8ZGV-12" value="Validate high" style="rounded=0;whiteSpace=wrap;html=1;" parent="1" vertex="1">
          <mxGeometry x="-20.120000000000005" y="570" width="120" height="60" as="geometry" />
        </mxCell>
        <mxCell id="I_L8l_8aJPMO7CtZ8ZGV-15" style="edgeStyle=orthogonalEdgeStyle;rounded=0;orthogonalLoop=1;jettySize=auto;html=1;" parent="1" source="I_L8l_8aJPMO7CtZ8ZGV-19" target="I_L8l_8aJPMO7CtZ8ZGV-21" edge="1">
          <mxGeometry relative="1" as="geometry" />
        </mxCell>
        <mxCell id="SgZbVkb8MoTtRzP9FXSa-5" value="PPM_input = 0" style="edgeLabel;html=1;align=center;verticalAlign=middle;resizable=0;points=[];" parent="I_L8l_8aJPMO7CtZ8ZGV-15" vertex="1" connectable="0">
          <mxGeometry x="-0.3257" y="-1" relative="1" as="geometry">
            <mxPoint as="offset" />
          </mxGeometry>
        </mxCell>
        <mxCell id="I_L8l_8aJPMO7CtZ8ZGV-19" value="Measure" style="rounded=0;whiteSpace=wrap;html=1;" parent="1" vertex="1">
          <mxGeometry x="-20.120000000000005" y="670" width="120" height="60" as="geometry" />
        </mxCell>
        <mxCell id="I_L8l_8aJPMO7CtZ8ZGV-20" style="edgeStyle=orthogonalEdgeStyle;rounded=0;orthogonalLoop=1;jettySize=auto;html=1;" parent="1" source="I_L8l_8aJPMO7CtZ8ZGV-21" target="I_L8l_8aJPMO7CtZ8ZGV-26" edge="1">
          <mxGeometry relative="1" as="geometry">
            <mxPoint x="-125.12" y="810" as="targetPoint" />
            <Array as="points">
              <mxPoint x="-80.06" y="790" />
              <mxPoint x="-80.06" y="490" />
            </Array>
          </mxGeometry>
        </mxCell>
        <mxCell id="SgZbVkb8MoTtRzP9FXSa-8" value="counter &amp;lt; 6" style="edgeLabel;html=1;align=center;verticalAlign=middle;resizable=0;points=[];" parent="I_L8l_8aJPMO7CtZ8ZGV-20" vertex="1" connectable="0">
          <mxGeometry x="-0.0137" y="-1" relative="1" as="geometry">
            <mxPoint as="offset" />
          </mxGeometry>
        </mxCell>
        <mxCell id="SgZbVkb8MoTtRzP9FXSa-9" style="edgeStyle=orthogonalEdgeStyle;rounded=0;orthogonalLoop=1;jettySize=auto;html=1;entryX=0;entryY=0.5;entryDx=0;entryDy=0;" parent="1" source="I_L8l_8aJPMO7CtZ8ZGV-21" target="I_L8l_8aJPMO7CtZ8ZGV-9" edge="1">
          <mxGeometry relative="1" as="geometry">
            <mxPoint x="-210.06" y="580" as="targetPoint" />
            <Array as="points">
              <mxPoint x="-140.06" y="830" />
              <mxPoint x="-140.06" y="390" />
            </Array>
          </mxGeometry>
        </mxCell>
        <mxCell id="SgZbVkb8MoTtRzP9FXSa-10" value="counter = 0" style="edgeLabel;html=1;align=center;verticalAlign=middle;resizable=0;points=[];" parent="SgZbVkb8MoTtRzP9FXSa-9" vertex="1" connectable="0">
          <mxGeometry x="0.1324" y="-1" relative="1" as="geometry">
            <mxPoint as="offset" />
          </mxGeometry>
        </mxCell>
        <mxCell id="I_L8l_8aJPMO7CtZ8ZGV-21" value="STORE" style="rounded=0;whiteSpace=wrap;html=1;" parent="1" vertex="1">
          <mxGeometry x="-20.120000000000005" y="780" width="120" height="60" as="geometry" />
        </mxCell>
        <mxCell id="I_L8l_8aJPMO7CtZ8ZGV-22" style="edgeStyle=orthogonalEdgeStyle;rounded=0;orthogonalLoop=1;jettySize=auto;html=1;entryX=0.5;entryY=0;entryDx=0;entryDy=0;" parent="1" source="I_L8l_8aJPMO7CtZ8ZGV-26" target="I_L8l_8aJPMO7CtZ8ZGV-12" edge="1">
          <mxGeometry relative="1" as="geometry" />
        </mxCell>
        <mxCell id="SgZbVkb8MoTtRzP9FXSa-3" value="&amp;nbsp;" style="edgeLabel;html=1;align=center;verticalAlign=middle;resizable=0;points=[];" parent="I_L8l_8aJPMO7CtZ8ZGV-22" vertex="1" connectable="0">
          <mxGeometry x="0.019" y="-1" relative="1" as="geometry">
            <mxPoint x="1" y="-5" as="offset" />
          </mxGeometry>
        </mxCell>
        <mxCell id="SgZbVkb8MoTtRzP9FXSa-6" style="edgeStyle=orthogonalEdgeStyle;rounded=0;orthogonalLoop=1;jettySize=auto;html=1;entryX=1;entryY=0.5;entryDx=0;entryDy=0;" parent="1" source="I_L8l_8aJPMO7CtZ8ZGV-26" target="I_L8l_8aJPMO7CtZ8ZGV-9" edge="1">
          <mxGeometry relative="1" as="geometry">
            <Array as="points">
              <mxPoint x="149.94" y="490" />
              <mxPoint x="149.94" y="390" />
            </Array>
          </mxGeometry>
        </mxCell>
        <mxCell id="SgZbVkb8MoTtRzP9FXSa-7" value="PPM_input = 1&lt;br&gt;&amp;amp;&amp;amp; # clk cycles &amp;lt; 3" style="edgeLabel;html=1;align=center;verticalAlign=middle;resizable=0;points=[];" parent="SgZbVkb8MoTtRzP9FXSa-6" vertex="1" connectable="0">
          <mxGeometry x="-0.088" y="2" relative="1" as="geometry">
            <mxPoint as="offset" />
          </mxGeometry>
        </mxCell>
        <mxCell id="I_L8l_8aJPMO7CtZ8ZGV-26" value="Validate low&lt;br&gt;Wait for high" style="rounded=0;whiteSpace=wrap;html=1;" parent="1" vertex="1">
          <mxGeometry x="-20.120000000000005" y="460" width="120" height="60" as="geometry" />
        </mxCell>
        <mxCell id="fLMnV7idnNdh54UHB9VL-26" value="" style="endArrow=none;html=1;rounded=0;" parent="1" edge="1">
          <mxGeometry width="50" height="50" relative="1" as="geometry">
            <mxPoint x="640" y="1240" as="sourcePoint" />
            <mxPoint x="650.06" y="1240" as="targetPoint" />
          </mxGeometry>
        </mxCell>
        <mxCell id="fLMnV7idnNdh54UHB9VL-27" value="" style="endArrow=none;html=1;rounded=0;" parent="1" edge="1">
          <mxGeometry width="50" height="50" relative="1" as="geometry">
            <mxPoint x="650.06" y="1240" as="sourcePoint" />
            <mxPoint x="650.06" y="1200" as="targetPoint" />
          </mxGeometry>
        </mxCell>
        <mxCell id="fLMnV7idnNdh54UHB9VL-28" value="" style="endArrow=none;html=1;rounded=0;" parent="1" edge="1">
          <mxGeometry width="50" height="50" relative="1" as="geometry">
            <mxPoint x="639.72" y="1240" as="sourcePoint" />
            <mxPoint x="639.72" y="1200" as="targetPoint" />
          </mxGeometry>
        </mxCell>
        <mxCell id="fLMnV7idnNdh54UHB9VL-29" value="" style="endArrow=none;html=1;rounded=0;" parent="1" edge="1">
          <mxGeometry width="50" height="50" relative="1" as="geometry">
            <mxPoint x="699.86" y="1240" as="sourcePoint" />
            <mxPoint x="699.86" y="1200" as="targetPoint" />
          </mxGeometry>
        </mxCell>
        <mxCell id="fLMnV7idnNdh54UHB9VL-30" value="" style="endArrow=none;html=1;rounded=0;" parent="1" edge="1">
          <mxGeometry width="50" height="50" relative="1" as="geometry">
            <mxPoint x="710.06" y="1240" as="sourcePoint" />
            <mxPoint x="710.06" y="1200" as="targetPoint" />
          </mxGeometry>
        </mxCell>
        <mxCell id="fLMnV7idnNdh54UHB9VL-31" value="" style="endArrow=none;html=1;rounded=0;" parent="1" edge="1">
          <mxGeometry width="50" height="50" relative="1" as="geometry">
            <mxPoint x="740.06" y="1240" as="sourcePoint" />
            <mxPoint x="740.06" y="1200" as="targetPoint" />
          </mxGeometry>
        </mxCell>
        <mxCell id="fLMnV7idnNdh54UHB9VL-32" value="" style="endArrow=none;html=1;rounded=0;" parent="1" edge="1">
          <mxGeometry width="50" height="50" relative="1" as="geometry">
            <mxPoint x="750.06" y="1240" as="sourcePoint" />
            <mxPoint x="750.06" y="1200" as="targetPoint" />
          </mxGeometry>
        </mxCell>
        <mxCell id="fLMnV7idnNdh54UHB9VL-33" value="" style="endArrow=none;html=1;rounded=0;" parent="1" edge="1">
          <mxGeometry width="50" height="50" relative="1" as="geometry">
            <mxPoint x="800.06" y="1240" as="sourcePoint" />
            <mxPoint x="800.06" y="1200" as="targetPoint" />
          </mxGeometry>
        </mxCell>
        <mxCell id="fLMnV7idnNdh54UHB9VL-34" value="" style="endArrow=none;html=1;rounded=0;" parent="1" edge="1">
          <mxGeometry width="50" height="50" relative="1" as="geometry">
            <mxPoint x="810.06" y="1240" as="sourcePoint" />
            <mxPoint x="810.06" y="1200" as="targetPoint" />
          </mxGeometry>
        </mxCell>
        <mxCell id="fLMnV7idnNdh54UHB9VL-35" value="" style="endArrow=none;html=1;rounded=0;" parent="1" edge="1">
          <mxGeometry width="50" height="50" relative="1" as="geometry">
            <mxPoint x="840.06" y="1240" as="sourcePoint" />
            <mxPoint x="840.06" y="1200" as="targetPoint" />
          </mxGeometry>
        </mxCell>
        <mxCell id="fLMnV7idnNdh54UHB9VL-36" value="" style="endArrow=none;html=1;rounded=0;" parent="1" edge="1">
          <mxGeometry width="50" height="50" relative="1" as="geometry">
            <mxPoint x="850.06" y="1240" as="sourcePoint" />
            <mxPoint x="850.06" y="1200" as="targetPoint" />
          </mxGeometry>
        </mxCell>
        <mxCell id="fLMnV7idnNdh54UHB9VL-37" value="" style="endArrow=none;html=1;rounded=0;" parent="1" edge="1">
          <mxGeometry width="50" height="50" relative="1" as="geometry">
            <mxPoint x="700.06" y="1240" as="sourcePoint" />
            <mxPoint x="710.12" y="1240" as="targetPoint" />
          </mxGeometry>
        </mxCell>
        <mxCell id="fLMnV7idnNdh54UHB9VL-38" value="" style="endArrow=none;html=1;rounded=0;" parent="1" edge="1">
          <mxGeometry width="50" height="50" relative="1" as="geometry">
            <mxPoint x="740.06" y="1240" as="sourcePoint" />
            <mxPoint x="750.12" y="1240" as="targetPoint" />
          </mxGeometry>
        </mxCell>
        <mxCell id="fLMnV7idnNdh54UHB9VL-39" value="" style="endArrow=none;html=1;rounded=0;" parent="1" edge="1">
          <mxGeometry width="50" height="50" relative="1" as="geometry">
            <mxPoint x="800.06" y="1240" as="sourcePoint" />
            <mxPoint x="810.1199999999999" y="1240" as="targetPoint" />
          </mxGeometry>
        </mxCell>
        <mxCell id="fLMnV7idnNdh54UHB9VL-40" value="" style="endArrow=none;html=1;rounded=0;" parent="1" edge="1">
          <mxGeometry width="50" height="50" relative="1" as="geometry">
            <mxPoint x="650.06" y="1200" as="sourcePoint" />
            <mxPoint x="700.06" y="1200" as="targetPoint" />
          </mxGeometry>
        </mxCell>
        <mxCell id="fLMnV7idnNdh54UHB9VL-41" value="" style="endArrow=none;html=1;rounded=0;" parent="1" edge="1">
          <mxGeometry width="50" height="50" relative="1" as="geometry">
            <mxPoint x="840.06" y="1240" as="sourcePoint" />
            <mxPoint x="850.1199999999999" y="1240" as="targetPoint" />
          </mxGeometry>
        </mxCell>
        <mxCell id="fLMnV7idnNdh54UHB9VL-42" value="" style="endArrow=none;html=1;rounded=0;" parent="1" edge="1">
          <mxGeometry width="50" height="50" relative="1" as="geometry">
            <mxPoint x="710.06" y="1200" as="sourcePoint" />
            <mxPoint x="740.06" y="1200" as="targetPoint" />
          </mxGeometry>
        </mxCell>
        <mxCell id="fLMnV7idnNdh54UHB9VL-43" value="" style="endArrow=none;html=1;rounded=0;" parent="1" edge="1">
          <mxGeometry width="50" height="50" relative="1" as="geometry">
            <mxPoint x="750.06" y="1200" as="sourcePoint" />
            <mxPoint x="800.06" y="1200" as="targetPoint" />
          </mxGeometry>
        </mxCell>
        <mxCell id="fLMnV7idnNdh54UHB9VL-44" value="" style="endArrow=none;html=1;rounded=0;" parent="1" edge="1">
          <mxGeometry width="50" height="50" relative="1" as="geometry">
            <mxPoint x="810.06" y="1200" as="sourcePoint" />
            <mxPoint x="840.06" y="1200" as="targetPoint" />
          </mxGeometry>
        </mxCell>
        <mxCell id="fLMnV7idnNdh54UHB9VL-45" value="" style="endArrow=none;html=1;rounded=0;" parent="1" edge="1">
          <mxGeometry width="50" height="50" relative="1" as="geometry">
            <mxPoint x="850.06" y="1200" as="sourcePoint" />
            <mxPoint x="880.06" y="1200" as="targetPoint" />
          </mxGeometry>
        </mxCell>
        <mxCell id="fLMnV7idnNdh54UHB9VL-46" value="" style="endArrow=none;html=1;rounded=0;" parent="1" edge="1">
          <mxGeometry width="50" height="50" relative="1" as="geometry">
            <mxPoint x="600.06" y="1200" as="sourcePoint" />
            <mxPoint x="640" y="1200" as="targetPoint" />
          </mxGeometry>
        </mxCell>
        <mxCell id="fLMnV7idnNdh54UHB9VL-47" value="IDLE" style="text;html=1;align=center;verticalAlign=middle;resizable=0;points=[];autosize=1;strokeColor=none;fillColor=none;" parent="1" vertex="1">
          <mxGeometry x="590" y="1220" width="50" height="30" as="geometry" />
        </mxCell>
        <mxCell id="fLMnV7idnNdh54UHB9VL-48" value="IDLE" style="text;html=1;align=center;verticalAlign=middle;resizable=0;points=[];autosize=1;strokeColor=none;fillColor=none;" parent="1" vertex="1">
          <mxGeometry x="860.06" y="1220" width="50" height="30" as="geometry" />
        </mxCell>
        <mxCell id="fLMnV7idnNdh54UHB9VL-52" value="" style="endArrow=none;html=1;rounded=0;" parent="1" edge="1">
          <mxGeometry width="50" height="50" relative="1" as="geometry">
            <mxPoint x="560" y="1360" as="sourcePoint" />
            <mxPoint x="640" y="1360" as="targetPoint" />
          </mxGeometry>
        </mxCell>
        <mxCell id="fLMnV7idnNdh54UHB9VL-53" value="" style="endArrow=none;html=1;rounded=0;" parent="1" edge="1">
          <mxGeometry width="50" height="50" relative="1" as="geometry">
            <mxPoint x="640" y="1360" as="sourcePoint" />
            <mxPoint x="640.06" y="1280" as="targetPoint" />
          </mxGeometry>
        </mxCell>
        <mxCell id="fLMnV7idnNdh54UHB9VL-54" value="" style="endArrow=none;html=1;rounded=0;" parent="1" edge="1">
          <mxGeometry width="50" height="50" relative="1" as="geometry">
            <mxPoint x="760" y="1360" as="sourcePoint" />
            <mxPoint x="760" y="1280" as="targetPoint" />
          </mxGeometry>
        </mxCell>
        <mxCell id="fLMnV7idnNdh54UHB9VL-55" value="" style="endArrow=none;html=1;rounded=0;" parent="1" edge="1">
          <mxGeometry width="50" height="50" relative="1" as="geometry">
            <mxPoint x="640.06" y="1280" as="sourcePoint" />
            <mxPoint x="760" y="1280" as="targetPoint" />
          </mxGeometry>
        </mxCell>
        <mxCell id="fLMnV7idnNdh54UHB9VL-57" value="" style="endArrow=none;html=1;rounded=0;" parent="1" edge="1">
          <mxGeometry width="50" height="50" relative="1" as="geometry">
            <mxPoint x="760" y="1360" as="sourcePoint" />
            <mxPoint x="840" y="1360" as="targetPoint" />
          </mxGeometry>
        </mxCell>
        <mxCell id="fLMnV7idnNdh54UHB9VL-58" value="Validate low/&lt;br&gt;Wait for high" style="text;html=1;align=center;verticalAlign=middle;resizable=0;points=[];autosize=1;strokeColor=none;fillColor=none;" parent="1" vertex="1">
          <mxGeometry x="550" y="1320" width="90" height="40" as="geometry" />
        </mxCell>
        <mxCell id="fLMnV7idnNdh54UHB9VL-59" value="Validate high" style="text;html=1;align=center;verticalAlign=middle;resizable=0;points=[];autosize=1;strokeColor=none;fillColor=none;" parent="1" vertex="1">
          <mxGeometry x="600" y="1370" width="90" height="30" as="geometry" />
        </mxCell>
        <mxCell id="fLMnV7idnNdh54UHB9VL-60" value="" style="endArrow=none;dashed=1;html=1;dashPattern=1 3;strokeWidth=2;rounded=0;" parent="1" edge="1">
          <mxGeometry width="50" height="50" relative="1" as="geometry">
            <mxPoint x="650" y="1360" as="sourcePoint" />
            <mxPoint x="650" y="1280" as="targetPoint" />
          </mxGeometry>
        </mxCell>
        <mxCell id="fLMnV7idnNdh54UHB9VL-61" value="Measure" style="text;html=1;align=center;verticalAlign=middle;resizable=0;points=[];autosize=1;strokeColor=none;fillColor=none;" parent="1" vertex="1">
          <mxGeometry x="660" y="1280" width="70" height="30" as="geometry" />
        </mxCell>
        <mxCell id="fLMnV7idnNdh54UHB9VL-62" value="" style="endArrow=none;dashed=1;html=1;dashPattern=1 3;strokeWidth=2;rounded=0;" parent="1" edge="1">
          <mxGeometry width="50" height="50" relative="1" as="geometry">
            <mxPoint x="770" y="1360" as="sourcePoint" />
            <mxPoint x="770" y="1280" as="targetPoint" />
          </mxGeometry>
        </mxCell>
        <mxCell id="fLMnV7idnNdh54UHB9VL-63" value="Store" style="text;html=1;align=center;verticalAlign=middle;resizable=0;points=[];autosize=1;strokeColor=none;fillColor=none;" parent="1" vertex="1">
          <mxGeometry x="750" y="1370" width="50" height="30" as="geometry" />
        </mxCell>
        <mxCell id="fLMnV7idnNdh54UHB9VL-64" value="Validate low/&lt;br&gt;Wait for high" style="text;html=1;align=center;verticalAlign=middle;resizable=0;points=[];autosize=1;strokeColor=none;fillColor=none;" parent="1" vertex="1">
          <mxGeometry x="770.06" y="1320" width="90" height="40" as="geometry" />
        </mxCell>
        <mxCell id="fLMnV7idnNdh54UHB9VL-68" style="edgeStyle=orthogonalEdgeStyle;rounded=0;orthogonalLoop=1;jettySize=auto;html=1;entryX=0.5;entryY=0;entryDx=0;entryDy=0;" parent="1" source="fLMnV7idnNdh54UHB9VL-65" target="bbKsHi3ar1JZ7ZzZOmmY-145" edge="1">
          <mxGeometry relative="1" as="geometry">
            <mxPoint x="1220" y="1210" as="targetPoint" />
          </mxGeometry>
        </mxCell>
        <mxCell id="bbKsHi3ar1JZ7ZzZOmmY-143" value="low_valid = &#39;1&#39;" style="edgeLabel;html=1;align=center;verticalAlign=middle;resizable=0;points=[];" parent="fLMnV7idnNdh54UHB9VL-68" vertex="1" connectable="0">
          <mxGeometry x="-0.0953" y="2" relative="1" as="geometry">
            <mxPoint x="-2" y="-7" as="offset" />
          </mxGeometry>
        </mxCell>
        <mxCell id="fLMnV7idnNdh54UHB9VL-65" value="IDLE" style="rounded=0;whiteSpace=wrap;html=1;fillColor=#1ba1e2;fontColor=#ffffff;strokeColor=#006EAF;" parent="1" vertex="1">
          <mxGeometry x="1160" y="1110" width="120" height="60" as="geometry" />
        </mxCell>
        <mxCell id="fLMnV7idnNdh54UHB9VL-69" style="edgeStyle=orthogonalEdgeStyle;rounded=0;orthogonalLoop=1;jettySize=auto;html=1;" parent="1" source="fLMnV7idnNdh54UHB9VL-66" target="fLMnV7idnNdh54UHB9VL-67" edge="1">
          <mxGeometry relative="1" as="geometry" />
        </mxCell>
        <mxCell id="bbKsHi3ar1JZ7ZzZOmmY-144" value="low_valid = &#39;1&#39;" style="edgeLabel;html=1;align=center;verticalAlign=middle;resizable=0;points=[];" parent="fLMnV7idnNdh54UHB9VL-69" vertex="1" connectable="0">
          <mxGeometry x="-0.2292" y="-1" relative="1" as="geometry">
            <mxPoint x="1" as="offset" />
          </mxGeometry>
        </mxCell>
        <mxCell id="fLMnV7idnNdh54UHB9VL-66" value="MEASURE" style="rounded=0;whiteSpace=wrap;html=1;fillColor=#60a917;strokeColor=#2D7600;fontColor=#ffffff;" parent="1" vertex="1">
          <mxGeometry x="1160" y="1310" width="120" height="60" as="geometry" />
        </mxCell>
        <mxCell id="fLMnV7idnNdh54UHB9VL-80" style="edgeStyle=orthogonalEdgeStyle;rounded=0;orthogonalLoop=1;jettySize=auto;html=1;" parent="1" source="fLMnV7idnNdh54UHB9VL-67" target="bbKsHi3ar1JZ7ZzZOmmY-121" edge="1">
          <mxGeometry relative="1" as="geometry">
            <Array as="points">
              <mxPoint x="1340" y="1440" />
              <mxPoint x="1340" y="1040" />
            </Array>
            <mxPoint x="1320" y="1020" as="targetPoint" />
          </mxGeometry>
        </mxCell>
        <mxCell id="bbKsHi3ar1JZ7ZzZOmmY-4" value="&lt;div&gt;Channel =6&lt;/div&gt;" style="edgeLabel;html=1;align=center;verticalAlign=middle;resizable=0;points=[];" parent="fLMnV7idnNdh54UHB9VL-80" vertex="1" connectable="0">
          <mxGeometry x="0.0124" y="-1" relative="1" as="geometry">
            <mxPoint y="183" as="offset" />
          </mxGeometry>
        </mxCell>
        <mxCell id="bbKsHi3ar1JZ7ZzZOmmY-5" style="edgeStyle=orthogonalEdgeStyle;rounded=0;orthogonalLoop=1;jettySize=auto;html=1;exitX=0;exitY=0.25;exitDx=0;exitDy=0;entryX=0;entryY=0.5;entryDx=0;entryDy=0;" parent="1" source="fLMnV7idnNdh54UHB9VL-67" target="bbKsHi3ar1JZ7ZzZOmmY-145" edge="1">
          <mxGeometry relative="1" as="geometry">
            <Array as="points">
              <mxPoint x="1070" y="1425" />
              <mxPoint x="1070" y="1240" />
            </Array>
          </mxGeometry>
        </mxCell>
        <mxCell id="bbKsHi3ar1JZ7ZzZOmmY-6" value="Channel != 6" style="edgeLabel;html=1;align=center;verticalAlign=middle;resizable=0;points=[];" parent="bbKsHi3ar1JZ7ZzZOmmY-5" vertex="1" connectable="0">
          <mxGeometry x="0.0048" y="1" relative="1" as="geometry">
            <mxPoint as="offset" />
          </mxGeometry>
        </mxCell>
        <mxCell id="fLMnV7idnNdh54UHB9VL-67" value="STORE" style="rounded=0;whiteSpace=wrap;html=1;fillColor=#d80073;fontColor=#ffffff;strokeColor=#A50040;" parent="1" vertex="1">
          <mxGeometry x="1160" y="1410" width="120" height="60" as="geometry" />
        </mxCell>
        <mxCell id="fLMnV7idnNdh54UHB9VL-70" value="&amp;nbsp;" style="text;whiteSpace=wrap;html=1;" parent="1" vertex="1">
          <mxGeometry x="640" y="1220" width="40" height="40" as="geometry" />
        </mxCell>
        <mxCell id="fLMnV7idnNdh54UHB9VL-76" value="&lt;div&gt;Disables counter reset&lt;/div&gt;&lt;div&gt;Waits for valid low&lt;/div&gt;&lt;div&gt;(Assumes valid high)&lt;br&gt;&lt;/div&gt;" style="text;html=1;align=center;verticalAlign=middle;resizable=0;points=[];autosize=1;fillColor=#dae8fc;strokeColor=#6c8ebf;" parent="1" vertex="1">
          <mxGeometry x="990" y="1110" width="140" height="60" as="geometry" />
        </mxCell>
        <mxCell id="fLMnV7idnNdh54UHB9VL-79" value="&lt;div&gt;Start counter&lt;/div&gt;&lt;div&gt;Waits for valid low&lt;br&gt;&lt;/div&gt;(Assumes valid high)" style="text;html=1;align=center;verticalAlign=middle;resizable=0;points=[];autosize=1;fillColor=#d5e8d4;strokeColor=#82b366;" parent="1" vertex="1">
          <mxGeometry x="1360" y="1310" width="130" height="60" as="geometry" />
        </mxCell>
        <mxCell id="bbKsHi3ar1JZ7ZzZOmmY-2" value="&lt;div&gt;Channel recorded&lt;/div&gt;&lt;div&gt;Channel counter ++&lt;/div&gt;&lt;div&gt;&lt;br&gt;&lt;/div&gt;&lt;div&gt;If Channel = 6:&lt;/div&gt;&lt;div&gt;Assert CLR&lt;br&gt;&lt;/div&gt;Send DONE signal" style="text;html=1;align=center;verticalAlign=middle;resizable=0;points=[];autosize=1;strokeColor=#9673a6;fillColor=#FFBFE5;" parent="1" vertex="1">
          <mxGeometry x="1155" y="1485" width="130" height="100" as="geometry" />
        </mxCell>
        <mxCell id="bbKsHi3ar1JZ7ZzZOmmY-7" value="&lt;div&gt;Validation&lt;/div&gt;" style="text;html=1;align=center;verticalAlign=middle;resizable=0;points=[];autosize=1;strokeColor=#6F0000;fillColor=#a20025;fontColor=#ffffff;" parent="1" vertex="1">
          <mxGeometry x="720" y="1450" width="80" height="30" as="geometry" />
        </mxCell>
        <mxCell id="bbKsHi3ar1JZ7ZzZOmmY-9" value="" style="endArrow=none;html=1;rounded=0;fillColor=#60a917;strokeColor=#2D7600;" parent="1" edge="1">
          <mxGeometry width="50" height="50" relative="1" as="geometry">
            <mxPoint x="600" y="1570" as="sourcePoint" />
            <mxPoint x="600" y="1490" as="targetPoint" />
          </mxGeometry>
        </mxCell>
        <mxCell id="bbKsHi3ar1JZ7ZzZOmmY-10" value="" style="endArrow=none;html=1;rounded=0;fillColor=#e51400;strokeColor=#B20000;" parent="1" edge="1">
          <mxGeometry width="50" height="50" relative="1" as="geometry">
            <mxPoint x="609.6700000000001" y="1570" as="sourcePoint" />
            <mxPoint x="609.6700000000001" y="1490" as="targetPoint" />
          </mxGeometry>
        </mxCell>
        <mxCell id="bbKsHi3ar1JZ7ZzZOmmY-11" value="" style="endArrow=none;html=1;rounded=0;" parent="1" edge="1">
          <mxGeometry width="50" height="50" relative="1" as="geometry">
            <mxPoint x="600" y="1490" as="sourcePoint" />
            <mxPoint x="610" y="1490" as="targetPoint" />
          </mxGeometry>
        </mxCell>
        <mxCell id="bbKsHi3ar1JZ7ZzZOmmY-12" value="" style="endArrow=none;html=1;rounded=0;" parent="1" edge="1">
          <mxGeometry width="50" height="50" relative="1" as="geometry">
            <mxPoint x="610" y="1570" as="sourcePoint" />
            <mxPoint x="620" y="1570" as="targetPoint" />
          </mxGeometry>
        </mxCell>
        <mxCell id="bbKsHi3ar1JZ7ZzZOmmY-20" value="" style="endArrow=none;html=1;rounded=0;fillColor=#60a917;strokeColor=#2D7600;" parent="1" edge="1">
          <mxGeometry width="50" height="50" relative="1" as="geometry">
            <mxPoint x="619.6700000000001" y="1570" as="sourcePoint" />
            <mxPoint x="619.6700000000001" y="1490" as="targetPoint" />
          </mxGeometry>
        </mxCell>
        <mxCell id="bbKsHi3ar1JZ7ZzZOmmY-21" value="" style="endArrow=none;html=1;rounded=0;" parent="1" edge="1">
          <mxGeometry width="50" height="50" relative="1" as="geometry">
            <mxPoint x="620" y="1490" as="sourcePoint" />
            <mxPoint x="630" y="1490" as="targetPoint" />
          </mxGeometry>
        </mxCell>
        <mxCell id="bbKsHi3ar1JZ7ZzZOmmY-22" value="" style="endArrow=none;html=1;rounded=0;fillColor=#60a917;strokeColor=#2D7600;" parent="1" edge="1">
          <mxGeometry width="50" height="50" relative="1" as="geometry">
            <mxPoint x="640" y="1570" as="sourcePoint" />
            <mxPoint x="640" y="1490" as="targetPoint" />
          </mxGeometry>
        </mxCell>
        <mxCell id="bbKsHi3ar1JZ7ZzZOmmY-23" value="" style="endArrow=none;html=1;rounded=0;fillColor=#e51400;strokeColor=#B20000;" parent="1" edge="1">
          <mxGeometry width="50" height="50" relative="1" as="geometry">
            <mxPoint x="649.6700000000001" y="1570" as="sourcePoint" />
            <mxPoint x="649.6700000000001" y="1490" as="targetPoint" />
          </mxGeometry>
        </mxCell>
        <mxCell id="bbKsHi3ar1JZ7ZzZOmmY-24" value="" style="endArrow=none;html=1;rounded=0;" parent="1" edge="1">
          <mxGeometry width="50" height="50" relative="1" as="geometry">
            <mxPoint x="640" y="1490" as="sourcePoint" />
            <mxPoint x="650" y="1490" as="targetPoint" />
          </mxGeometry>
        </mxCell>
        <mxCell id="bbKsHi3ar1JZ7ZzZOmmY-25" value="" style="endArrow=none;html=1;rounded=0;" parent="1" edge="1">
          <mxGeometry width="50" height="50" relative="1" as="geometry">
            <mxPoint x="650" y="1570" as="sourcePoint" />
            <mxPoint x="660" y="1570" as="targetPoint" />
          </mxGeometry>
        </mxCell>
        <mxCell id="bbKsHi3ar1JZ7ZzZOmmY-26" value="" style="endArrow=none;html=1;rounded=0;fillColor=#60a917;strokeColor=#2D7600;" parent="1" edge="1">
          <mxGeometry width="50" height="50" relative="1" as="geometry">
            <mxPoint x="659.6700000000001" y="1570" as="sourcePoint" />
            <mxPoint x="659.6700000000001" y="1490" as="targetPoint" />
          </mxGeometry>
        </mxCell>
        <mxCell id="bbKsHi3ar1JZ7ZzZOmmY-27" value="" style="endArrow=none;html=1;rounded=0;" parent="1" edge="1">
          <mxGeometry width="50" height="50" relative="1" as="geometry">
            <mxPoint x="660" y="1490" as="sourcePoint" />
            <mxPoint x="670" y="1490" as="targetPoint" />
          </mxGeometry>
        </mxCell>
        <mxCell id="bbKsHi3ar1JZ7ZzZOmmY-28" value="" style="endArrow=none;html=1;rounded=0;fillColor=#e51400;strokeColor=#B20000;" parent="1" edge="1">
          <mxGeometry width="50" height="50" relative="1" as="geometry">
            <mxPoint x="629.83" y="1570" as="sourcePoint" />
            <mxPoint x="629.83" y="1490" as="targetPoint" />
          </mxGeometry>
        </mxCell>
        <mxCell id="bbKsHi3ar1JZ7ZzZOmmY-29" value="" style="endArrow=none;html=1;rounded=0;" parent="1" edge="1">
          <mxGeometry width="50" height="50" relative="1" as="geometry">
            <mxPoint x="630" y="1570" as="sourcePoint" />
            <mxPoint x="640" y="1570" as="targetPoint" />
          </mxGeometry>
        </mxCell>
        <mxCell id="bbKsHi3ar1JZ7ZzZOmmY-30" value="" style="endArrow=none;html=1;rounded=0;fillColor=#60a917;strokeColor=#2D7600;" parent="1" edge="1">
          <mxGeometry width="50" height="50" relative="1" as="geometry">
            <mxPoint x="680" y="1570" as="sourcePoint" />
            <mxPoint x="680" y="1490" as="targetPoint" />
          </mxGeometry>
        </mxCell>
        <mxCell id="bbKsHi3ar1JZ7ZzZOmmY-31" value="" style="endArrow=none;html=1;rounded=0;fillColor=#e51400;strokeColor=#B20000;" parent="1" edge="1">
          <mxGeometry width="50" height="50" relative="1" as="geometry">
            <mxPoint x="689.6700000000001" y="1570" as="sourcePoint" />
            <mxPoint x="689.6700000000001" y="1490" as="targetPoint" />
          </mxGeometry>
        </mxCell>
        <mxCell id="bbKsHi3ar1JZ7ZzZOmmY-32" value="" style="endArrow=none;html=1;rounded=0;" parent="1" edge="1">
          <mxGeometry width="50" height="50" relative="1" as="geometry">
            <mxPoint x="680" y="1490" as="sourcePoint" />
            <mxPoint x="690" y="1490" as="targetPoint" />
          </mxGeometry>
        </mxCell>
        <mxCell id="bbKsHi3ar1JZ7ZzZOmmY-33" value="" style="endArrow=none;html=1;rounded=0;" parent="1" edge="1">
          <mxGeometry width="50" height="50" relative="1" as="geometry">
            <mxPoint x="690" y="1570" as="sourcePoint" />
            <mxPoint x="700" y="1570" as="targetPoint" />
          </mxGeometry>
        </mxCell>
        <mxCell id="bbKsHi3ar1JZ7ZzZOmmY-34" value="" style="endArrow=none;html=1;rounded=0;fillColor=#60a917;strokeColor=#2D7600;" parent="1" edge="1">
          <mxGeometry width="50" height="50" relative="1" as="geometry">
            <mxPoint x="699.6700000000001" y="1570" as="sourcePoint" />
            <mxPoint x="699.6700000000001" y="1490" as="targetPoint" />
          </mxGeometry>
        </mxCell>
        <mxCell id="bbKsHi3ar1JZ7ZzZOmmY-35" value="" style="endArrow=none;html=1;rounded=0;" parent="1" edge="1">
          <mxGeometry width="50" height="50" relative="1" as="geometry">
            <mxPoint x="700" y="1490" as="sourcePoint" />
            <mxPoint x="710" y="1490" as="targetPoint" />
          </mxGeometry>
        </mxCell>
        <mxCell id="bbKsHi3ar1JZ7ZzZOmmY-36" value="" style="endArrow=none;html=1;rounded=0;fillColor=#60a917;strokeColor=#2D7600;" parent="1" edge="1">
          <mxGeometry width="50" height="50" relative="1" as="geometry">
            <mxPoint x="720" y="1570" as="sourcePoint" />
            <mxPoint x="720" y="1490" as="targetPoint" />
          </mxGeometry>
        </mxCell>
        <mxCell id="bbKsHi3ar1JZ7ZzZOmmY-37" value="" style="endArrow=none;html=1;rounded=0;fillColor=#e51400;strokeColor=#B20000;" parent="1" edge="1">
          <mxGeometry width="50" height="50" relative="1" as="geometry">
            <mxPoint x="729.6700000000001" y="1570" as="sourcePoint" />
            <mxPoint x="729.6700000000001" y="1490" as="targetPoint" />
          </mxGeometry>
        </mxCell>
        <mxCell id="bbKsHi3ar1JZ7ZzZOmmY-38" value="" style="endArrow=none;html=1;rounded=0;" parent="1" edge="1">
          <mxGeometry width="50" height="50" relative="1" as="geometry">
            <mxPoint x="720" y="1490" as="sourcePoint" />
            <mxPoint x="730" y="1490" as="targetPoint" />
          </mxGeometry>
        </mxCell>
        <mxCell id="bbKsHi3ar1JZ7ZzZOmmY-39" value="" style="endArrow=none;html=1;rounded=0;" parent="1" edge="1">
          <mxGeometry width="50" height="50" relative="1" as="geometry">
            <mxPoint x="730" y="1570" as="sourcePoint" />
            <mxPoint x="740" y="1570" as="targetPoint" />
          </mxGeometry>
        </mxCell>
        <mxCell id="bbKsHi3ar1JZ7ZzZOmmY-40" value="" style="endArrow=none;html=1;rounded=0;fillColor=#60a917;strokeColor=#2D7600;" parent="1" edge="1">
          <mxGeometry width="50" height="50" relative="1" as="geometry">
            <mxPoint x="739.6700000000001" y="1570" as="sourcePoint" />
            <mxPoint x="739.6700000000001" y="1490" as="targetPoint" />
          </mxGeometry>
        </mxCell>
        <mxCell id="bbKsHi3ar1JZ7ZzZOmmY-41" value="" style="endArrow=none;html=1;rounded=0;" parent="1" edge="1">
          <mxGeometry width="50" height="50" relative="1" as="geometry">
            <mxPoint x="740" y="1490" as="sourcePoint" />
            <mxPoint x="750" y="1490" as="targetPoint" />
          </mxGeometry>
        </mxCell>
        <mxCell id="bbKsHi3ar1JZ7ZzZOmmY-42" value="" style="endArrow=none;html=1;rounded=0;fillColor=#e51400;strokeColor=#B20000;" parent="1" edge="1">
          <mxGeometry width="50" height="50" relative="1" as="geometry">
            <mxPoint x="709.83" y="1570" as="sourcePoint" />
            <mxPoint x="709.83" y="1490" as="targetPoint" />
          </mxGeometry>
        </mxCell>
        <mxCell id="bbKsHi3ar1JZ7ZzZOmmY-43" value="" style="endArrow=none;html=1;rounded=0;" parent="1" edge="1">
          <mxGeometry width="50" height="50" relative="1" as="geometry">
            <mxPoint x="710" y="1570" as="sourcePoint" />
            <mxPoint x="720" y="1570" as="targetPoint" />
          </mxGeometry>
        </mxCell>
        <mxCell id="bbKsHi3ar1JZ7ZzZOmmY-44" value="" style="endArrow=none;html=1;rounded=0;" parent="1" edge="1">
          <mxGeometry width="50" height="50" relative="1" as="geometry">
            <mxPoint x="670" y="1570" as="sourcePoint" />
            <mxPoint x="680" y="1570" as="targetPoint" />
          </mxGeometry>
        </mxCell>
        <mxCell id="bbKsHi3ar1JZ7ZzZOmmY-45" value="" style="endArrow=none;html=1;rounded=0;fillColor=#e51400;strokeColor=#B20000;" parent="1" edge="1">
          <mxGeometry width="50" height="50" relative="1" as="geometry">
            <mxPoint x="670" y="1570" as="sourcePoint" />
            <mxPoint x="670" y="1490" as="targetPoint" />
          </mxGeometry>
        </mxCell>
        <mxCell id="bbKsHi3ar1JZ7ZzZOmmY-47" value="" style="endArrow=none;html=1;rounded=0;strokeColor=#000000;" parent="1" edge="1">
          <mxGeometry width="50" height="50" relative="1" as="geometry">
            <mxPoint x="660" y="1620" as="sourcePoint" />
            <mxPoint x="700" y="1620" as="targetPoint" />
          </mxGeometry>
        </mxCell>
        <mxCell id="bbKsHi3ar1JZ7ZzZOmmY-48" value="" style="endArrow=none;html=1;rounded=0;fillColor=#ffe6cc;strokeColor=#000000;" parent="1" edge="1">
          <mxGeometry width="50" height="50" relative="1" as="geometry">
            <mxPoint x="700" y="1620" as="sourcePoint" />
            <mxPoint x="700" y="1580" as="targetPoint" />
          </mxGeometry>
        </mxCell>
        <mxCell id="bbKsHi3ar1JZ7ZzZOmmY-49" value="" style="endArrow=none;html=1;rounded=0;fillColor=#ffe6cc;strokeColor=#000000;" parent="1" edge="1">
          <mxGeometry width="50" height="50" relative="1" as="geometry">
            <mxPoint x="659.8000000000001" y="1620" as="sourcePoint" />
            <mxPoint x="659.8000000000001" y="1580" as="targetPoint" />
          </mxGeometry>
        </mxCell>
        <mxCell id="bbKsHi3ar1JZ7ZzZOmmY-50" value="" style="endArrow=none;html=1;rounded=0;fillColor=#ffe6cc;strokeColor=#000000;" parent="1" edge="1">
          <mxGeometry width="50" height="50" relative="1" as="geometry">
            <mxPoint x="779.8" y="1620" as="sourcePoint" />
            <mxPoint x="779.8" y="1580" as="targetPoint" />
          </mxGeometry>
        </mxCell>
        <mxCell id="bbKsHi3ar1JZ7ZzZOmmY-51" value="" style="endArrow=none;html=1;rounded=0;fillColor=#ffe6cc;strokeColor=#000000;" parent="1" edge="1">
          <mxGeometry width="50" height="50" relative="1" as="geometry">
            <mxPoint x="820" y="1620" as="sourcePoint" />
            <mxPoint x="820" y="1580" as="targetPoint" />
          </mxGeometry>
        </mxCell>
        <mxCell id="bbKsHi3ar1JZ7ZzZOmmY-52" value="" style="endArrow=none;html=1;rounded=0;fillColor=#ffe6cc;strokeColor=#000000;" parent="1" edge="1">
          <mxGeometry width="50" height="50" relative="1" as="geometry">
            <mxPoint x="850" y="1620" as="sourcePoint" />
            <mxPoint x="850" y="1580" as="targetPoint" />
          </mxGeometry>
        </mxCell>
        <mxCell id="bbKsHi3ar1JZ7ZzZOmmY-58" value="" style="endArrow=none;html=1;rounded=0;fillColor=#ffe6cc;strokeColor=#000000;" parent="1" edge="1">
          <mxGeometry width="50" height="50" relative="1" as="geometry">
            <mxPoint x="780" y="1620" as="sourcePoint" />
            <mxPoint x="820" y="1620" as="targetPoint" />
          </mxGeometry>
        </mxCell>
        <mxCell id="bbKsHi3ar1JZ7ZzZOmmY-59" value="" style="endArrow=none;html=1;rounded=0;fillColor=#ffe6cc;strokeColor=#000000;" parent="1" edge="1">
          <mxGeometry width="50" height="50" relative="1" as="geometry">
            <mxPoint x="850" y="1620" as="sourcePoint" />
            <mxPoint x="890" y="1620" as="targetPoint" />
          </mxGeometry>
        </mxCell>
        <mxCell id="bbKsHi3ar1JZ7ZzZOmmY-61" value="" style="endArrow=none;html=1;rounded=0;fillColor=#ffe6cc;strokeColor=#000000;" parent="1" edge="1">
          <mxGeometry width="50" height="50" relative="1" as="geometry">
            <mxPoint x="700" y="1580" as="sourcePoint" />
            <mxPoint x="780" y="1580" as="targetPoint" />
          </mxGeometry>
        </mxCell>
        <mxCell id="bbKsHi3ar1JZ7ZzZOmmY-63" value="" style="endArrow=none;html=1;rounded=0;fillColor=#ffe6cc;strokeColor=#000000;" parent="1" edge="1">
          <mxGeometry width="50" height="50" relative="1" as="geometry">
            <mxPoint x="820" y="1580" as="sourcePoint" />
            <mxPoint x="850" y="1580" as="targetPoint" />
          </mxGeometry>
        </mxCell>
        <mxCell id="bbKsHi3ar1JZ7ZzZOmmY-67" value="" style="endArrow=none;html=1;rounded=0;fillColor=#ffe6cc;strokeColor=#000000;" parent="1" edge="1">
          <mxGeometry width="50" height="50" relative="1" as="geometry">
            <mxPoint x="600" y="1580" as="sourcePoint" />
            <mxPoint x="660" y="1580" as="targetPoint" />
          </mxGeometry>
        </mxCell>
        <mxCell id="bbKsHi3ar1JZ7ZzZOmmY-71" value="" style="endArrow=none;html=1;rounded=0;fillColor=#e51400;strokeColor=#B20000;" parent="1" edge="1">
          <mxGeometry width="50" height="50" relative="1" as="geometry">
            <mxPoint x="750" y="1570" as="sourcePoint" />
            <mxPoint x="750" y="1490" as="targetPoint" />
          </mxGeometry>
        </mxCell>
        <mxCell id="bbKsHi3ar1JZ7ZzZOmmY-72" value="" style="endArrow=none;html=1;rounded=0;" parent="1" edge="1">
          <mxGeometry width="50" height="50" relative="1" as="geometry">
            <mxPoint x="750" y="1570" as="sourcePoint" />
            <mxPoint x="760" y="1570" as="targetPoint" />
          </mxGeometry>
        </mxCell>
        <mxCell id="bbKsHi3ar1JZ7ZzZOmmY-73" value="" style="endArrow=none;html=1;rounded=0;fillColor=#60a917;strokeColor=#2D7600;" parent="1" edge="1">
          <mxGeometry width="50" height="50" relative="1" as="geometry">
            <mxPoint x="760" y="1570" as="sourcePoint" />
            <mxPoint x="760" y="1490" as="targetPoint" />
          </mxGeometry>
        </mxCell>
        <mxCell id="bbKsHi3ar1JZ7ZzZOmmY-74" value="" style="endArrow=none;html=1;rounded=0;fillColor=#e51400;strokeColor=#B20000;" parent="1" edge="1">
          <mxGeometry width="50" height="50" relative="1" as="geometry">
            <mxPoint x="769.6700000000001" y="1570" as="sourcePoint" />
            <mxPoint x="769.6700000000001" y="1490" as="targetPoint" />
          </mxGeometry>
        </mxCell>
        <mxCell id="bbKsHi3ar1JZ7ZzZOmmY-75" value="" style="endArrow=none;html=1;rounded=0;" parent="1" edge="1">
          <mxGeometry width="50" height="50" relative="1" as="geometry">
            <mxPoint x="760" y="1490" as="sourcePoint" />
            <mxPoint x="770" y="1490" as="targetPoint" />
          </mxGeometry>
        </mxCell>
        <mxCell id="bbKsHi3ar1JZ7ZzZOmmY-76" value="" style="endArrow=none;html=1;rounded=0;" parent="1" edge="1">
          <mxGeometry width="50" height="50" relative="1" as="geometry">
            <mxPoint x="770" y="1570" as="sourcePoint" />
            <mxPoint x="780" y="1570" as="targetPoint" />
          </mxGeometry>
        </mxCell>
        <mxCell id="bbKsHi3ar1JZ7ZzZOmmY-77" value="" style="endArrow=none;html=1;rounded=0;fillColor=#60a917;strokeColor=#2D7600;" parent="1" edge="1">
          <mxGeometry width="50" height="50" relative="1" as="geometry">
            <mxPoint x="779.6700000000001" y="1570" as="sourcePoint" />
            <mxPoint x="779.6700000000001" y="1490" as="targetPoint" />
          </mxGeometry>
        </mxCell>
        <mxCell id="bbKsHi3ar1JZ7ZzZOmmY-78" value="" style="endArrow=none;html=1;rounded=0;" parent="1" edge="1">
          <mxGeometry width="50" height="50" relative="1" as="geometry">
            <mxPoint x="780" y="1490" as="sourcePoint" />
            <mxPoint x="790" y="1490" as="targetPoint" />
          </mxGeometry>
        </mxCell>
        <mxCell id="bbKsHi3ar1JZ7ZzZOmmY-79" value="" style="endArrow=none;html=1;rounded=0;fillColor=#60a917;strokeColor=#2D7600;" parent="1" edge="1">
          <mxGeometry width="50" height="50" relative="1" as="geometry">
            <mxPoint x="800" y="1570" as="sourcePoint" />
            <mxPoint x="800" y="1490" as="targetPoint" />
          </mxGeometry>
        </mxCell>
        <mxCell id="bbKsHi3ar1JZ7ZzZOmmY-80" value="" style="endArrow=none;html=1;rounded=0;fillColor=#e51400;strokeColor=#B20000;" parent="1" edge="1">
          <mxGeometry width="50" height="50" relative="1" as="geometry">
            <mxPoint x="809.6700000000001" y="1570" as="sourcePoint" />
            <mxPoint x="809.6700000000001" y="1490" as="targetPoint" />
          </mxGeometry>
        </mxCell>
        <mxCell id="bbKsHi3ar1JZ7ZzZOmmY-81" value="" style="endArrow=none;html=1;rounded=0;" parent="1" edge="1">
          <mxGeometry width="50" height="50" relative="1" as="geometry">
            <mxPoint x="800" y="1490" as="sourcePoint" />
            <mxPoint x="810" y="1490" as="targetPoint" />
          </mxGeometry>
        </mxCell>
        <mxCell id="bbKsHi3ar1JZ7ZzZOmmY-82" value="" style="endArrow=none;html=1;rounded=0;" parent="1" edge="1">
          <mxGeometry width="50" height="50" relative="1" as="geometry">
            <mxPoint x="810" y="1570" as="sourcePoint" />
            <mxPoint x="820" y="1570" as="targetPoint" />
          </mxGeometry>
        </mxCell>
        <mxCell id="bbKsHi3ar1JZ7ZzZOmmY-83" value="" style="endArrow=none;html=1;rounded=0;fillColor=#60a917;strokeColor=#2D7600;" parent="1" edge="1">
          <mxGeometry width="50" height="50" relative="1" as="geometry">
            <mxPoint x="819.6700000000001" y="1570" as="sourcePoint" />
            <mxPoint x="819.6700000000001" y="1490" as="targetPoint" />
          </mxGeometry>
        </mxCell>
        <mxCell id="bbKsHi3ar1JZ7ZzZOmmY-84" value="" style="endArrow=none;html=1;rounded=0;" parent="1" edge="1">
          <mxGeometry width="50" height="50" relative="1" as="geometry">
            <mxPoint x="820" y="1490" as="sourcePoint" />
            <mxPoint x="830" y="1490" as="targetPoint" />
          </mxGeometry>
        </mxCell>
        <mxCell id="bbKsHi3ar1JZ7ZzZOmmY-85" value="" style="endArrow=none;html=1;rounded=0;fillColor=#e51400;strokeColor=#B20000;" parent="1" edge="1">
          <mxGeometry width="50" height="50" relative="1" as="geometry">
            <mxPoint x="789.83" y="1570" as="sourcePoint" />
            <mxPoint x="789.83" y="1490" as="targetPoint" />
          </mxGeometry>
        </mxCell>
        <mxCell id="bbKsHi3ar1JZ7ZzZOmmY-86" value="" style="endArrow=none;html=1;rounded=0;" parent="1" edge="1">
          <mxGeometry width="50" height="50" relative="1" as="geometry">
            <mxPoint x="790" y="1570" as="sourcePoint" />
            <mxPoint x="800" y="1570" as="targetPoint" />
          </mxGeometry>
        </mxCell>
        <mxCell id="bbKsHi3ar1JZ7ZzZOmmY-87" value="" style="endArrow=none;html=1;rounded=0;fillColor=#60a917;strokeColor=#2D7600;" parent="1" edge="1">
          <mxGeometry width="50" height="50" relative="1" as="geometry">
            <mxPoint x="840" y="1570" as="sourcePoint" />
            <mxPoint x="840" y="1490" as="targetPoint" />
          </mxGeometry>
        </mxCell>
        <mxCell id="bbKsHi3ar1JZ7ZzZOmmY-88" value="" style="endArrow=none;html=1;rounded=0;fillColor=#e51400;strokeColor=#B20000;" parent="1" edge="1">
          <mxGeometry width="50" height="50" relative="1" as="geometry">
            <mxPoint x="849.6700000000001" y="1570" as="sourcePoint" />
            <mxPoint x="849.6700000000001" y="1490" as="targetPoint" />
          </mxGeometry>
        </mxCell>
        <mxCell id="bbKsHi3ar1JZ7ZzZOmmY-89" value="" style="endArrow=none;html=1;rounded=0;" parent="1" edge="1">
          <mxGeometry width="50" height="50" relative="1" as="geometry">
            <mxPoint x="840" y="1490" as="sourcePoint" />
            <mxPoint x="850" y="1490" as="targetPoint" />
          </mxGeometry>
        </mxCell>
        <mxCell id="bbKsHi3ar1JZ7ZzZOmmY-90" value="" style="endArrow=none;html=1;rounded=0;" parent="1" edge="1">
          <mxGeometry width="50" height="50" relative="1" as="geometry">
            <mxPoint x="850" y="1570" as="sourcePoint" />
            <mxPoint x="860" y="1570" as="targetPoint" />
          </mxGeometry>
        </mxCell>
        <mxCell id="bbKsHi3ar1JZ7ZzZOmmY-91" value="" style="endArrow=none;html=1;rounded=0;fillColor=#60a917;strokeColor=#2D7600;" parent="1" edge="1">
          <mxGeometry width="50" height="50" relative="1" as="geometry">
            <mxPoint x="859.6700000000001" y="1570" as="sourcePoint" />
            <mxPoint x="859.6700000000001" y="1490" as="targetPoint" />
          </mxGeometry>
        </mxCell>
        <mxCell id="bbKsHi3ar1JZ7ZzZOmmY-92" value="" style="endArrow=none;html=1;rounded=0;" parent="1" edge="1">
          <mxGeometry width="50" height="50" relative="1" as="geometry">
            <mxPoint x="860" y="1490" as="sourcePoint" />
            <mxPoint x="870" y="1490" as="targetPoint" />
          </mxGeometry>
        </mxCell>
        <mxCell id="bbKsHi3ar1JZ7ZzZOmmY-93" value="" style="endArrow=none;html=1;rounded=0;fillColor=#60a917;strokeColor=#2D7600;" parent="1" edge="1">
          <mxGeometry width="50" height="50" relative="1" as="geometry">
            <mxPoint x="880" y="1570" as="sourcePoint" />
            <mxPoint x="880" y="1490" as="targetPoint" />
          </mxGeometry>
        </mxCell>
        <mxCell id="bbKsHi3ar1JZ7ZzZOmmY-94" value="" style="endArrow=none;html=1;rounded=0;fillColor=#e51400;strokeColor=#B20000;" parent="1" edge="1">
          <mxGeometry width="50" height="50" relative="1" as="geometry">
            <mxPoint x="889.6700000000001" y="1570" as="sourcePoint" />
            <mxPoint x="889.6700000000001" y="1490" as="targetPoint" />
          </mxGeometry>
        </mxCell>
        <mxCell id="bbKsHi3ar1JZ7ZzZOmmY-95" value="" style="endArrow=none;html=1;rounded=0;" parent="1" edge="1">
          <mxGeometry width="50" height="50" relative="1" as="geometry">
            <mxPoint x="880" y="1490" as="sourcePoint" />
            <mxPoint x="890" y="1490" as="targetPoint" />
          </mxGeometry>
        </mxCell>
        <mxCell id="bbKsHi3ar1JZ7ZzZOmmY-96" value="" style="endArrow=none;html=1;rounded=0;" parent="1" edge="1">
          <mxGeometry width="50" height="50" relative="1" as="geometry">
            <mxPoint x="890" y="1570" as="sourcePoint" />
            <mxPoint x="900" y="1570" as="targetPoint" />
          </mxGeometry>
        </mxCell>
        <mxCell id="bbKsHi3ar1JZ7ZzZOmmY-97" value="" style="endArrow=none;html=1;rounded=0;fillColor=#60a917;strokeColor=#2D7600;" parent="1" edge="1">
          <mxGeometry width="50" height="50" relative="1" as="geometry">
            <mxPoint x="899.6700000000001" y="1570" as="sourcePoint" />
            <mxPoint x="899.6700000000001" y="1490" as="targetPoint" />
          </mxGeometry>
        </mxCell>
        <mxCell id="bbKsHi3ar1JZ7ZzZOmmY-98" value="" style="endArrow=none;html=1;rounded=0;" parent="1" edge="1">
          <mxGeometry width="50" height="50" relative="1" as="geometry">
            <mxPoint x="900" y="1490" as="sourcePoint" />
            <mxPoint x="910" y="1490" as="targetPoint" />
          </mxGeometry>
        </mxCell>
        <mxCell id="bbKsHi3ar1JZ7ZzZOmmY-99" value="" style="endArrow=none;html=1;rounded=0;fillColor=#e51400;strokeColor=#B20000;" parent="1" edge="1">
          <mxGeometry width="50" height="50" relative="1" as="geometry">
            <mxPoint x="869.83" y="1570" as="sourcePoint" />
            <mxPoint x="869.83" y="1490" as="targetPoint" />
          </mxGeometry>
        </mxCell>
        <mxCell id="bbKsHi3ar1JZ7ZzZOmmY-100" value="" style="endArrow=none;html=1;rounded=0;" parent="1" edge="1">
          <mxGeometry width="50" height="50" relative="1" as="geometry">
            <mxPoint x="870" y="1570" as="sourcePoint" />
            <mxPoint x="880" y="1570" as="targetPoint" />
          </mxGeometry>
        </mxCell>
        <mxCell id="bbKsHi3ar1JZ7ZzZOmmY-101" value="" style="endArrow=none;html=1;rounded=0;" parent="1" edge="1">
          <mxGeometry width="50" height="50" relative="1" as="geometry">
            <mxPoint x="830" y="1570" as="sourcePoint" />
            <mxPoint x="840" y="1570" as="targetPoint" />
          </mxGeometry>
        </mxCell>
        <mxCell id="bbKsHi3ar1JZ7ZzZOmmY-102" value="" style="endArrow=none;html=1;rounded=0;fillColor=#e51400;strokeColor=#B20000;" parent="1" edge="1">
          <mxGeometry width="50" height="50" relative="1" as="geometry">
            <mxPoint x="830" y="1570" as="sourcePoint" />
            <mxPoint x="830" y="1490" as="targetPoint" />
          </mxGeometry>
        </mxCell>
        <mxCell id="bbKsHi3ar1JZ7ZzZOmmY-103" value="" style="endArrow=none;html=1;rounded=0;fillColor=#e51400;strokeColor=#B20000;" parent="1" edge="1">
          <mxGeometry width="50" height="50" relative="1" as="geometry">
            <mxPoint x="910" y="1570" as="sourcePoint" />
            <mxPoint x="910" y="1490" as="targetPoint" />
          </mxGeometry>
        </mxCell>
        <mxCell id="bbKsHi3ar1JZ7ZzZOmmY-104" value="" style="endArrow=none;html=1;rounded=0;" parent="1" edge="1">
          <mxGeometry width="50" height="50" relative="1" as="geometry">
            <mxPoint x="910" y="1570" as="sourcePoint" />
            <mxPoint x="920" y="1570" as="targetPoint" />
          </mxGeometry>
        </mxCell>
        <mxCell id="bbKsHi3ar1JZ7ZzZOmmY-105" value="" style="endArrow=none;html=1;rounded=0;fillColor=#ffe6cc;strokeColor=#000000;" parent="1" edge="1">
          <mxGeometry width="50" height="50" relative="1" as="geometry">
            <mxPoint x="890" y="1580" as="sourcePoint" />
            <mxPoint x="920" y="1580" as="targetPoint" />
          </mxGeometry>
        </mxCell>
        <mxCell id="bbKsHi3ar1JZ7ZzZOmmY-106" value="" style="endArrow=none;html=1;rounded=0;fillColor=#ffe6cc;strokeColor=#000000;" parent="1" edge="1">
          <mxGeometry width="50" height="50" relative="1" as="geometry">
            <mxPoint x="890" y="1620" as="sourcePoint" />
            <mxPoint x="890" y="1580" as="targetPoint" />
          </mxGeometry>
        </mxCell>
        <mxCell id="bbKsHi3ar1JZ7ZzZOmmY-107" value="&lt;div&gt;IDLE&lt;br&gt;Waits for high on event&lt;br&gt;&lt;/div&gt;" style="text;html=1;align=center;verticalAlign=middle;resizable=0;points=[];autosize=1;strokeColor=#666666;fillColor=#f5f5f5;fontColor=#333333;" parent="1" vertex="1">
          <mxGeometry x="520" y="1630" width="150" height="40" as="geometry" />
        </mxCell>
        <mxCell id="bbKsHi3ar1JZ7ZzZOmmY-112" value="" style="endArrow=none;dashed=1;html=1;dashPattern=1 3;strokeWidth=2;rounded=0;strokeColor=#A1A1A1;" parent="1" edge="1">
          <mxGeometry width="50" height="50" relative="1" as="geometry">
            <mxPoint x="710" y="1620" as="sourcePoint" />
            <mxPoint x="710" y="1580" as="targetPoint" />
          </mxGeometry>
        </mxCell>
        <mxCell id="bbKsHi3ar1JZ7ZzZOmmY-113" value="&lt;div&gt;Validate high - start count&lt;/div&gt;&lt;div&gt;if validate true:&lt;/div&gt;&lt;div&gt;Go to measure&lt;/div&gt;&lt;div&gt;Keep count&lt;/div&gt;&lt;div&gt;if validate false:&lt;/div&gt;&lt;div&gt;Stay IDLE&lt;/div&gt;&lt;div&gt;Discard count&lt;br&gt;&lt;/div&gt;" style="text;html=1;align=center;verticalAlign=middle;resizable=0;points=[];autosize=1;strokeColor=#82b366;fillColor=#d5e8d4;" parent="1" vertex="1">
          <mxGeometry x="520" y="1670" width="160" height="110" as="geometry" />
        </mxCell>
        <mxCell id="bbKsHi3ar1JZ7ZzZOmmY-116" value="&lt;div&gt;Measure&lt;/div&gt;&lt;div&gt;Waits for low on event&lt;br&gt;&lt;/div&gt;" style="text;html=1;align=center;verticalAlign=middle;resizable=0;points=[];autosize=1;strokeColor=#6c8ebf;fillColor=#dae8fc;" parent="1" vertex="1">
          <mxGeometry x="519.94" y="1780" width="140" height="40" as="geometry" />
        </mxCell>
        <mxCell id="bbKsHi3ar1JZ7ZzZOmmY-119" value="&lt;div&gt;Validate low - save count, but keep counting&lt;/div&gt;&lt;div&gt;if validate true:&lt;/div&gt;&lt;div&gt;Go to STORE&lt;/div&gt;&lt;div&gt;Use saved count&lt;/div&gt;&lt;div&gt;if validate false:&lt;/div&gt;&lt;div&gt;Stay MEASURE&lt;/div&gt;&lt;div&gt;Discard saved count&lt;br&gt;&lt;/div&gt;" style="text;html=1;align=center;verticalAlign=middle;resizable=0;points=[];autosize=1;strokeColor=#b85450;fillColor=#f8cecc;" parent="1" vertex="1">
          <mxGeometry x="520" y="1820" width="260" height="110" as="geometry" />
        </mxCell>
        <mxCell id="bbKsHi3ar1JZ7ZzZOmmY-122" style="edgeStyle=orthogonalEdgeStyle;rounded=0;orthogonalLoop=1;jettySize=auto;html=1;entryX=0.5;entryY=0;entryDx=0;entryDy=0;" parent="1" source="bbKsHi3ar1JZ7ZzZOmmY-121" target="fLMnV7idnNdh54UHB9VL-65" edge="1">
          <mxGeometry relative="1" as="geometry" />
        </mxCell>
        <mxCell id="bbKsHi3ar1JZ7ZzZOmmY-121" value="IDLE_DETECT" style="rounded=0;whiteSpace=wrap;html=1;fillColor=#a20025;fontColor=#ffffff;strokeColor=#6F0000;" parent="1" vertex="1">
          <mxGeometry x="1160" y="1010" width="120" height="60" as="geometry" />
        </mxCell>
        <mxCell id="bbKsHi3ar1JZ7ZzZOmmY-128" value="RESET" style="text;html=1;align=center;verticalAlign=middle;resizable=0;points=[];autosize=1;strokeColor=none;fillColor=none;" parent="1" vertex="1">
          <mxGeometry x="900" y="1585" width="60" height="30" as="geometry" />
        </mxCell>
        <mxCell id="bbKsHi3ar1JZ7ZzZOmmY-130" value="CLK" style="text;html=1;align=center;verticalAlign=middle;resizable=0;points=[];autosize=1;strokeColor=#6F0000;fillColor=#a20025;fontColor=#ffffff;" parent="1" vertex="1">
          <mxGeometry x="505" y="1508" width="50" height="30" as="geometry" />
        </mxCell>
        <mxCell id="bbKsHi3ar1JZ7ZzZOmmY-131" value="PPM_Input" style="text;html=1;align=center;verticalAlign=middle;resizable=0;points=[];autosize=1;strokeColor=#6F0000;fillColor=#a20025;fontColor=#ffffff;" parent="1" vertex="1">
          <mxGeometry x="505" y="1585" width="80" height="30" as="geometry" />
        </mxCell>
        <mxCell id="bbKsHi3ar1JZ7ZzZOmmY-132" value="" style="endArrow=none;dashed=1;html=1;dashPattern=1 3;strokeWidth=2;rounded=0;strokeColor=#A1A1A1;" parent="1" edge="1">
          <mxGeometry width="50" height="50" relative="1" as="geometry">
            <mxPoint x="790" y="1620" as="sourcePoint" />
            <mxPoint x="790" y="1580" as="targetPoint" />
          </mxGeometry>
        </mxCell>
        <mxCell id="bbKsHi3ar1JZ7ZzZOmmY-133" value="" style="endArrow=none;dashed=1;html=1;dashPattern=1 3;strokeWidth=2;rounded=0;strokeColor=none;" parent="1" edge="1">
          <mxGeometry width="50" height="50" relative="1" as="geometry">
            <mxPoint x="830" y="1620" as="sourcePoint" />
            <mxPoint x="830" y="1580" as="targetPoint" />
          </mxGeometry>
        </mxCell>
        <mxCell id="bbKsHi3ar1JZ7ZzZOmmY-134" value="" style="endArrow=none;dashed=1;html=1;dashPattern=1 3;strokeWidth=2;rounded=0;strokeColor=#A1A1A1;" parent="1" edge="1">
          <mxGeometry width="50" height="50" relative="1" as="geometry">
            <mxPoint x="860.06" y="1620" as="sourcePoint" />
            <mxPoint x="860.06" y="1580" as="targetPoint" />
          </mxGeometry>
        </mxCell>
        <mxCell id="bbKsHi3ar1JZ7ZzZOmmY-136" value="&amp;nbsp;" style="text;whiteSpace=wrap;html=1;" parent="1" vertex="1">
          <mxGeometry x="-180" y="720" width="40" height="40" as="geometry" />
        </mxCell>
        <mxCell id="bbKsHi3ar1JZ7ZzZOmmY-139" value="" style="endArrow=none;dashed=1;html=1;dashPattern=1 3;strokeWidth=2;rounded=0;strokeColor=#A1A1A1;" parent="1" edge="1">
          <mxGeometry width="50" height="50" relative="1" as="geometry">
            <mxPoint x="830" y="1620" as="sourcePoint" />
            <mxPoint x="830" y="1580" as="targetPoint" />
          </mxGeometry>
        </mxCell>
        <mxCell id="bbKsHi3ar1JZ7ZzZOmmY-147" style="edgeStyle=orthogonalEdgeStyle;rounded=0;orthogonalLoop=1;jettySize=auto;html=1;entryX=0.5;entryY=0;entryDx=0;entryDy=0;" parent="1" source="bbKsHi3ar1JZ7ZzZOmmY-145" target="fLMnV7idnNdh54UHB9VL-66" edge="1">
          <mxGeometry relative="1" as="geometry" />
        </mxCell>
        <mxCell id="bbKsHi3ar1JZ7ZzZOmmY-149" value="high_valid = &#39;1&#39;" style="edgeLabel;html=1;align=center;verticalAlign=middle;resizable=0;points=[];" parent="bbKsHi3ar1JZ7ZzZOmmY-147" vertex="1" connectable="0">
          <mxGeometry x="-0.5048" y="-1" relative="1" as="geometry">
            <mxPoint x="1" as="offset" />
          </mxGeometry>
        </mxCell>
        <mxCell id="bbKsHi3ar1JZ7ZzZOmmY-145" value="INTERCHANNEL" style="rounded=0;whiteSpace=wrap;html=1;fillColor=#e3c800;strokeColor=#B09500;fontColor=#000000;fillStyle=auto;" parent="1" vertex="1">
          <mxGeometry x="1160" y="1210" width="120" height="60" as="geometry" />
        </mxCell>
        <mxCell id="bbKsHi3ar1JZ7ZzZOmmY-153" value="Waits for valid high&lt;br&gt;(Assumes valid low)" style="text;html=1;align=center;verticalAlign=middle;resizable=0;points=[];autosize=1;fillColor=#fff2cc;strokeColor=#d6b656;" parent="1" vertex="1">
          <mxGeometry x="1360" y="1220" width="130" height="40" as="geometry" />
        </mxCell>
        <mxCell id="bbKsHi3ar1JZ7ZzZOmmY-154" value="Wait for a 5 ms high" style="text;html=1;align=center;verticalAlign=middle;resizable=0;points=[];autosize=1;strokeColor=#b85450;fillColor=#f8cecc;" parent="1" vertex="1">
          <mxGeometry x="1155" y="960" width="130" height="30" as="geometry" />
        </mxCell>
      </root>
    </mxGraphModel>
  </diagram>
</mxfile>
